HIERARCHY
ROOT Hips
{
    OFFSET 0.000000 0.000000 0.000000
    CHANNELS 6 Xposition Yposition Zposition Zrotation Yrotation Xrotation
    JOINT Chest
    {
        OFFSET 0.000000 1.634758 -0.000000
        CHANNELS 3 Zrotation Yrotation Xrotation
        JOINT Chest2
        {
            OFFSET 0.000000 2.197341 0.000000
            CHANNELS 3 Zrotation Yrotation Xrotation
            JOINT Neck
            {
                OFFSET 0.000000 0.961544 0.000000
                CHANNELS 3 Zrotation Yrotation Xrotation
                JOINT Head
                {
                    OFFSET 0.000000 0.632542 -0.032565
                    CHANNELS 3 Zrotation Yrotation Xrotation
                    End Site
                    {
                        OFFSET -0.000001 0.439502 2.922845
                    }
                }
            }
            JOINT LeftCollar
            {
                OFFSET 0.167536 0.778237 -0.168280
                CHANNELS 3 Zrotation Yrotation Xrotation
                JOINT LeftShoulder
                {
                    OFFSET 0.831514 -0.002900 0.006458
                    CHANNELS 3 Zrotation Yrotation Xrotation
                    JOINT LeftElbow
                    {
                        OFFSET 2.272872 -0.026639 0.059314
                        CHANNELS 3 Zrotation Yrotation Xrotation
                        JOINT LeftWrist
                        {
                            OFFSET 2.081982 -0.024402 0.054333
                            CHANNELS 3 Zrotation Yrotation Xrotation
                            JOINT LeftHandThumb1
                            {
                                OFFSET 0.218903 -0.128645 0.283837
                                CHANNELS 3 Zrotation Yrotation Xrotation
                                JOINT LeftHandThumb2
                                {
                                    OFFSET 0.137157 -0.025101 0.077902
                                    CHANNELS 3 Zrotation Yrotation Xrotation
                                    JOINT LeftHandThumb3
                                    {
                                        OFFSET 0.121826 -0.131521 -0.037416
                                        CHANNELS 3 Zrotation Yrotation Xrotation
                                        End Site
                                        {
                                            OFFSET 0.151948 -0.220009 0.018552
                                        }
                                    }
                                }
                            }
                            JOINT LeftHandFore1
                            {
                                OFFSET 0.767340 -0.016076 0.196678
                                CHANNELS 3 Zrotation Yrotation Xrotation
                                JOINT LeftHandFore2
                                {
                                    OFFSET 0.054289 -0.207906 0.028691
                                    CHANNELS 3 Zrotation Yrotation Xrotation
                                    JOINT LeftHandFore3
                                    {
                                        OFFSET -0.123510 -0.038522 0.004932
                                        CHANNELS 3 Zrotation Yrotation Xrotation
                                        End Site
                                        {
                                            OFFSET -0.042538 0.187829 0.016660
                                        }
                                    }
                                }
                            }
                            JOINT LeftHandMiddle1
                            {
                                OFFSET 0.709887 -0.008320 0.018526
                                CHANNELS 3 Zrotation Yrotation Xrotation
                                JOINT LeftHandMiddle2
                                {
                                    OFFSET 0.045535 -0.240631 0.009332
                                    CHANNELS 3 Zrotation Yrotation Xrotation
                                    JOINT LeftHandMiddle3
                                    {
                                        OFFSET -0.141992 -0.034752 -0.003704
                                        CHANNELS 3 Zrotation Yrotation Xrotation
                                        End Site
                                        {
                                            OFFSET -0.039594 0.232487 -0.003515
                                        }
                                    }
                                }
                            }
                            JOINT LeftHandRing1
                            {
                                OFFSET 0.743817 -0.005823 -0.153668
                                CHANNELS 3 Zrotation Yrotation Xrotation
                                JOINT LeftHandRing2
                                {
                                    OFFSET 0.091970 -0.340397 0.020119
                                    CHANNELS 3 Zrotation Yrotation Xrotation
                                    JOINT LeftHandRing3
                                    {
                                        OFFSET -0.129426 -0.031032 -0.029860
                                        CHANNELS 3 Zrotation Yrotation Xrotation
                                        End Site
                                        {
                                            OFFSET -0.048635 0.105254 -0.031241
                                        }
                                    }
                                }
                            }
                            JOINT LeftHandLittle1
                            {
                                OFFSET 0.689408 -0.053302 -0.308304
                                CHANNELS 3 Zrotation Yrotation Xrotation
                                JOINT LeftHandLittle2
                                {
                                    OFFSET 0.087163 -0.174025 0.013123
                                    CHANNELS 3 Zrotation Yrotation Xrotation
                                    JOINT LeftHandLittle3
                                    {
                                        OFFSET -0.095129 -0.048943 -0.055239
                                        CHANNELS 3 Zrotation Yrotation Xrotation
                                        End Site
                                        {
                                            OFFSET -0.100912 0.145246 -0.070776
                                        }
                                    }
                                }
                            }
                        }
                    }
                }
            }
            JOINT RightCollar
            {
                OFFSET -0.167536 0.778237 -0.168280
                CHANNELS 3 Zrotation Yrotation Xrotation
                JOINT RightShoulder
                {
                    OFFSET -0.831514 -0.002900 0.006457
                    CHANNELS 3 Zrotation Yrotation Xrotation
                    JOINT RightElbow
                    {
                        OFFSET -2.272872 -0.026639 0.059313
                        CHANNELS 3 Zrotation Yrotation Xrotation
                        JOINT RightWrist
                        {
                            OFFSET -2.081982 -0.024402 0.054331
                            CHANNELS 3 Zrotation Yrotation Xrotation
                            JOINT RightHandThumb1
                            {
                                OFFSET -0.218911 -0.128571 0.283837
                                CHANNELS 3 Zrotation Yrotation Xrotation
                                JOINT RightHandThumb2
                                {
                                    OFFSET -0.137157 -0.025101 0.077902
                                    CHANNELS 3 Zrotation Yrotation Xrotation
                                    JOINT RightHandThumb3
                                    {
                                        OFFSET -0.146167 -0.088191 -0.066310
                                        CHANNELS 3 Zrotation Yrotation Xrotation
                                        End Site
                                        {
                                            OFFSET -0.245759 -0.052945 -0.092927
                                        }
                                    }
                                }
                            }
                            JOINT RightHandFore1
                            {
                                OFFSET -0.767344 -0.015991 0.196679
                                CHANNELS 3 Zrotation Yrotation Xrotation
                                JOINT RightHandFore2
                                {
                                    OFFSET -0.054325 -0.207908 0.028637
                                    CHANNELS 3 Zrotation Yrotation Xrotation
                                    JOINT RightHandFore3
                                    {
                                        OFFSET 0.052812 -0.004483 0.118122
                                        CHANNELS 3 Zrotation Yrotation Xrotation
                                        End Site
                                        {
                                            OFFSET 0.081898 0.168862 -0.046315
                                        }
                                    }
                                }
                            }
                            JOINT RightHandMiddle1
                            {
                                OFFSET -0.709887 -0.008302 0.018525
                                CHANNELS 3 Zrotation Yrotation Xrotation
                                JOINT RightHandMiddle2
                                {
                                    OFFSET -0.045512 -0.240632 0.009322
                                    CHANNELS 3 Zrotation Yrotation Xrotation
                                    JOINT RightHandMiddle3
                                    {
                                        OFFSET 0.127491 -0.034291 -0.062886
                                        CHANNELS 3 Zrotation Yrotation Xrotation
                                        End Site
                                        {
                                            OFFSET 0.037558 0.232550 -0.011853
                                        }
                                    }
                                }
                            }
                            JOINT RightHandRing1
                            {
                                OFFSET -0.743819 -0.005785 -0.153669
                                CHANNELS 3 Zrotation Yrotation Xrotation
                                JOINT RightHandRing2
                                {
                                    OFFSET -0.091994 -0.340390 0.020126
                                    CHANNELS 3 Zrotation Yrotation Xrotation
                                    JOINT RightHandRing3
                                    {
                                        OFFSET 0.132546 -0.030664 -0.009810
                                        CHANNELS 3 Zrotation Yrotation Xrotation
                                        End Site
                                        {
                                            OFFSET 0.055260 0.105994 0.011483
                                        }
                                    }
                                }
                            }
                            JOINT RightHandLittle1
                            {
                                OFFSET -0.689403 -0.053298 -0.308303
                                CHANNELS 3 Zrotation Yrotation Xrotation
                                JOINT RightHandLittle2
                                {
                                    OFFSET -0.087170 -0.174025 0.013124
                                    CHANNELS 3 Zrotation Yrotation Xrotation
                                    JOINT RightHandLittle3
                                    {
                                        OFFSET 0.108484 -0.051903 -0.005729
                                        CHANNELS 3 Zrotation Yrotation Xrotation
                                        End Site
                                        {
                                            OFFSET 0.127077 0.139457 0.026301
                                        }
                                    }
                                }
                            }
                        }
                    }
                }
            }
        }
    }
    JOINT LeftHip
    {
        OFFSET 0.685143 0.673822 -0.044491
        CHANNELS 3 Zrotation Yrotation Xrotation
        JOINT LeftKnee
        {
            OFFSET 0.085364 -3.750208 0.017676
            CHANNELS 3 Zrotation Yrotation Xrotation
            JOINT LeftAnkle
            {
                OFFSET 0.094583 -4.155206 0.019585
                CHANNELS 3 Zrotation Yrotation Xrotation
                JOINT LeftToe
                {
                    OFFSET -0.000000 -0.395925 0.621478
                    CHANNELS 3 Zrotation Yrotation Xrotation
                    End Site
                    {
                        OFFSET -0.000000 -0.077878 0.321152
                    }
                }
            }
        }
    }
    JOINT RightHip
    {
        OFFSET -0.685143 0.673822 -0.044492
        CHANNELS 3 Zrotation Yrotation Xrotation
        JOINT RightKnee
        {
            OFFSET -0.085364 -3.750208 0.017677
            CHANNELS 3 Zrotation Yrotation Xrotation
            JOINT RightAnkle
            {
                OFFSET -0.094583 -4.155206 0.019585
                CHANNELS 3 Zrotation Yrotation Xrotation
                JOINT RightToe
                {
                    OFFSET -0.000000 -0.395925 0.621478
                    CHANNELS 3 Zrotation Yrotation Xrotation
                    End Site
                    {
                        OFFSET -0.000000 -0.077878 0.321152
                    }
                }
            }
        }
    }
}
MOTION
Frames: 4
Frame Time: 0.033333
9.228044 8.200681 -15.474509 -179.745636 0.688007 169.191742 8.951073 29.471464 9.127753 -4.874797 -3.918419 -0.569636 7.405176 -3.326762 0.706122 0.717190 -13.665182 2.539041 -4.561642 -2.251442 -0.330700 -37.237419 6.274888 13.267697 177.906036 -61.983303 -178.749496 -7.471328 2.133090 28.040359 -0.000002 -0.000000 -0.000000 18.932863 -8.607388 -15.937125 11.840841 4.316787 -0.860903 47.940941 -21.099245 13.745267 60.375294 13.021324 13.085464 67.193153 12.867963 -10.129942 50.836788 9.593850 -3.302478 62.758053 10.709970 15.761078 57.084553 33.650452 -18.986294 47.237972 7.120287 0.595093 64.513733 16.737465 4.073690 52.178692 4.995061 -2.617886 41.014664 12.910585 -0.757850 60.199825 25.582006 -2.711410 54.361736 11.998217 -13.945383 15.248833 5.315507 1.011910 63.383091 0.876456 3.744423 -0.008461 9.365566 -0.110695 13.285893 -21.006783 23.453897 -0.000010 -0.000005 0.000015 -7.366550 23.608782 -6.989353 8.458173 9.329351 -0.840359 -47.941109 21.102749 13.740736 -31.688164 6.045063 51.315315 -19.417374 -8.179718 68.593529 -50.836628 -9.593915 -3.303341 -52.277771 1.460912 -38.762501 -71.479416 18.324251 -10.897661 -47.238018 -7.120204 0.595503 -64.200409 5.166963 -18.716061 -51.156971 -3.298568 -10.640858 -41.014595 -12.910730 -0.757882 -62.255432 16.167727 -27.219395 -57.171009 4.071739 -14.884808 -0.059097 -1.660569 -14.538164 0.510149 1.034505 52.495617 -5.470147 9.043984 -26.107639 -0.000000 -0.000003 -0.000007 4.459717 -0.227879 3.020430 -0.267602 -0.791447 37.364319 -7.655815 -21.240488 -34.410038 0.000005 0.000020 0.000001
9.154867 8.246451 -15.708295 -179.745071 -4.015841 169.179153 10.377810 31.580854 9.477846 -4.800763 -4.128439 1.110054 9.158435 -4.678787 0.146765 0.902808 -17.016590 1.118457 -5.552521 -3.657033 -0.439432 -35.063515 -0.498655 9.697985 170.936844 -85.419746 -171.638672 -4.175872 0.392309 16.880602 -0.000007 -0.000007 0.000016 18.939112 -8.609200 -15.942536 11.844515 4.318148 -0.861032 47.955814 -21.107145 13.746752 60.394745 13.022758 13.091248 67.214073 12.873357 -10.130570 50.852646 9.597075 -3.302143 62.778072 10.710435 15.767424 57.103298 33.662689 -18.986431 47.252720 7.122296 0.596167 64.534584 16.741484 4.077881 52.194912 4.996855 -2.617842 41.027634 12.914498 -0.756641 60.219913 25.589758 -2.707702 54.378506 12.003704 -13.947518 14.276639 8.254765 1.028166 64.807510 -4.685031 8.264050 -0.225372 41.756371 -0.598174 26.098848 -43.127285 19.265831 -0.000014 0.000005 0.000002 -7.369500 23.615950 -6.992170 8.460801 9.332258 -0.840403 -47.956017 21.110641 13.742203 -31.696508 6.051050 51.330513 -19.424065 -8.178429 68.615158 -50.852497 -9.597161 -3.303030 -52.293549 1.456011 -38.773911 -71.502892 18.326883 -10.904337 -47.252789 -7.122231 0.596555 -64.220428 5.165237 -18.722122 -51.172729 -3.301010 -10.643577 -41.027561 -12.914660 -0.756702 -62.275997 16.167727 -27.229877 -57.188808 4.070589 -14.889812 0.268561 11.616818 -16.735741 0.319673 0.855294 40.984470 -2.032496 -5.981210 -17.737785 0.000004 0.000010 -0.000006 5.014697 -0.977301 6.883474 -0.210065 -0.709796 32.974407 -8.894121 -24.071436 -31.522156 -0.000001 -0.000004 0.000004
9.102510 8.292458 -15.814439 -179.745071 -4.015841 169.179153 11.880331 31.553360 10.149414 -4.522913 -4.151210 1.445081 7.160036 -4.616637 0.326816 0.904040 -17.038631 1.716419 -7.624639 -3.807891 -0.599025 -41.602009 -1.760507 9.756504 2.475892 -77.743271 -3.078541 -0.864882 -0.933294 8.939829 -0.000004 0.000002 0.000004 18.945059 -8.610916 -15.947684 11.848011 4.319438 -0.861154 47.970024 -21.114645 13.748157 60.413284 13.024118 13.096764 67.234016 12.878499 -10.131171 50.867771 9.600178 -3.301837 62.797150 10.710880 15.773475 57.121147 33.674335 -18.986567 47.266792 7.124239 0.597188 64.554459 16.745321 4.081876 52.210373 4.998557 -2.617800 41.039997 12.918258 -0.755510 60.239044 25.597149 -2.704158 54.394478 12.008942 -13.949547 13.595218 10.239429 0.985750 58.019466 4.096748 26.718437 -0.263149 44.299255 -0.653769 56.198380 -43.823746 -10.841396 0.000000 -0.000007 0.000003 -7.372312 23.622782 -6.994866 8.463304 9.335034 -0.840448 -47.970203 21.118156 13.743599 -31.704462 6.056760 51.345013 -19.430429 -8.177212 68.635773 -50.867607 -9.600259 -3.302727 -52.308575 1.451341 -38.784779 -71.525253 18.329380 -10.910709 -47.266842 -7.124168 0.597567 -64.239502 5.163596 -18.727896 -51.187737 -3.303341 -10.646171 -41.039909 -12.918420 -0.755572 -62.295609 16.167728 -27.239868 -57.205776 4.069491 -14.894582 -0.012932 11.831264 -15.100285 0.290316 0.820285 38.976860 -1.832741 -5.938447 -17.412073 -0.000004 -0.000016 0.000004 4.861000 -0.961461 6.424897 -0.237007 -0.749687 35.089569 -6.323706 -14.777079 -31.263220 0.000006 0.000021 -0.000005
9.047169 8.338081 -15.930853 -179.745071 -4.015841 169.179153 13.211190 31.363335 10.610695 -4.230000 -4.178323 1.290812 3.492264 -4.600563 0.781629 0.904889 -17.053545 3.087789 -9.592104 -3.606987 -0.745403 -46.402897 -4.462265 8.942410 0.610164 -58.568192 -1.095312 0.026874 -1.492854 4.947688 -0.000008 0.000002 0.000003 18.950718 -8.612556 -15.952573 11.851338 4.320677 -0.861281 47.983459 -21.121786 13.749493 60.430878 13.025410 13.101988 67.252930 12.883381 -10.131748 50.882114 9.603097 -3.301543 62.815262 10.711298 15.779228 57.138100 33.685398 -18.986694 47.280136 7.126063 0.598161 64.573326 16.748959 4.085667 52.225056 5.000184 -2.617758 41.051716 12.921812 -0.754430 60.257229 25.604166 -2.700798 54.409645 12.013906 -13.951474 13.138999 10.729798 0.953736 44.903267 28.078773 83.611588 -0.508304 55.486500 -0.973707 38.774788 -9.214489 -50.301041 -0.000007 -0.000008 0.000005 -7.374982 23.629263 -6.997418 8.465688 9.337673 -0.840484 -47.983673 21.125286 13.744940 -31.712002 6.062171 51.358757 -19.436476 -8.176037 68.655334 -50.881962 -9.603189 -3.302432 -52.322853 1.446903 -38.795101 -71.546494 18.331745 -10.916758 -47.280197 -7.126002 0.598534 -64.257599 5.162038 -18.733377 -51.201981 -3.305552 -10.648628 -41.051643 -12.921977 -0.754496 -62.314220 16.167730 -27.249353 -57.221870 4.068449 -14.899120 -0.299510 12.045997 -13.363935 0.260436 0.781920 36.840080 -1.634815 -5.893528 -17.059761 0.000007 0.000033 -0.000004 4.752012 -0.892555 3.832514 -0.333279 -0.870756 41.890034 -4.650723 -9.721942 -29.974825 0.000003 0.000015 0.000010
